<?xml version="1.0" encoding="UTF-8" standalone="no"?>
<!DOCTYPE svg PUBLIC "-//W3C//DTD SVG 1.1//EN" "http://www.w3.org/Graphics/SVG/1.1/DTD/svg11.dtd">
<svg xmlns="http://www.w3.org/2000/svg" version="1.1" viewBox="0.00 0.00 1555.00 1348.00">
<g stroke-width="2.00" fill="none" stroke-linecap="butt">
<path stroke="#415dff" vector-effect="non-scaling-stroke" d="
  M 121.48 347.55
  L 120.62 344.59
  Q 120.49 344.14 120.00 344.14
  L 78.81 344.07
  Q 78.42 344.06 78.02 344.02
  Q 76.23 343.83 74.38 344.60
  Q 72.94 345.20 73.55 343.77
  Q 73.72 343.38 73.60 342.94
  Q 73.36 342.04 73.39 342.97
  Q 73.41 343.58 72.96 343.54"
/>
<path stroke="#654dff" vector-effect="non-scaling-stroke" d="
  M 121.48 606.22
  Q 120.92 605.01 120.88 603.67
  A 0.82 0.81 88.9 0 0 120.07 602.88
  Q 99.00 602.89 77.75 602.88
  Q 76.47 602.88 75.50 603.95
  Q 75.34 604.13 75.17 603.97
  Q 75.06 603.87 74.91 603.87
  Q 74.81 603.87 74.90 603.83
  Q 75.04 603.77 75.03 603.62
  Q 75.03 603.49 74.90 603.43
  Q 74.74 603.36 74.56 603.37
  Q 74.06 603.40 74.33 603.83
  Q 74.46 604.04 74.28 604.23
  Q 74.00 604.54 74.12 604.14
  Q 74.29 603.59 73.88 603.17
  Q 73.32 602.58 73.25 603.39
  L 72.96 606.96"
/>
<path stroke="#8a3dff" vector-effect="non-scaling-stroke" d="
  M 121.48 854.95
  Q 120.84 856.31 121.14 858.05
  Q 121.16 858.13 121.13 858.13
  L 120.85 858.13
  Q 120.78 858.13 120.80 858.05
  Q 121.14 856.96 120.61 856.19
  Q 120.39 855.88 120.01 855.88
  L 74.76 855.87
  Q 74.20 855.87 74.02 856.41
  Q 73.74 857.26 73.41 858.21
  Q 73.29 858.57 73.35 858.19
  Q 73.72 855.93 72.96 853.95"
/>
<path stroke="#a531ff" vector-effect="non-scaling-stroke" d="
  M 121.48 921.29
  Q 121.51 922.45 121.20 923.33
  Q 120.85 924.28 120.65 923.29
  Q 120.54 922.77 120.68 922.26
  Q 120.79 921.86 120.39 921.97
  Q 119.82 922.13 119.25 922.13
  Q 95.76 922.09 74.29 922.16
  A 0.33 0.33 0.0 0 0 73.96 922.46
  Q 73.72 925.07 73.55 927.76
  Q 73.54 927.95 73.34 927.94
  L 73.34 927.94
  Q 73.15 927.93 73.15 927.74
  Q 73.22 923.77 72.99 919.79"
/>
<path stroke="#415dff" vector-effect="non-scaling-stroke" d="
  M 1482.03 360.52
  L 1481.65 356.59
  Q 1481.60 356.12 1481.13 356.12
  L 1443.47 356.07
  Q 1442.96 356.07 1442.47 355.94
  Q 1439.72 355.25 1436.62 356.35
  Q 1435.17 356.87 1434.87 355.47
  Q 1434.82 355.26 1434.76 355.46
  Q 1434.74 355.52 1434.68 355.52
  Q 1434.48 355.51 1434.40 355.32
  Q 1434.32 355.14 1434.41 354.97
  Q 1434.60 354.64 1434.51 355.00
  Q 1434.39 355.54 1434.36 356.14
  Q 1434.32 356.83 1433.91 356.28
  Q 1433.65 355.94 1433.66 355.50
  Q 1433.72 349.77 1433.53 344.04"
/>
<path stroke="#415dff" vector-effect="non-scaling-stroke" d="
  M 558.74 331.29
  L 558.59 344.45
  Q 558.59 344.85 558.22 344.68
  Q 557.91 344.53 558.01 344.21
  A 0.04 0.04 0.0 0 1 558.09 344.22
  Q 558.18 344.99 558.09 345.81
  Q 557.98 346.79 557.67 345.85
  Q 557.56 345.50 557.62 345.14
  A 0.84 0.84 0.0 0 0 556.79 344.16
  L 511.81 343.99
  A 0.73 0.73 0.0 0 1 511.12 343.03
  Q 511.31 342.47 511.08 341.83
  Q 510.86 341.17 510.79 341.86
  L 510.26 347.05"
/>
<path stroke="#654dff" vector-effect="non-scaling-stroke" d="
  M 1482.03 603.71
  Q 1481.62 602.90 1480.75 602.90
  Q 1457.75 602.83 1434.75 602.94
  Q 1434.71 602.94 1434.70 602.90
  Q 1434.62 602.76 1434.52 602.64
  Q 1434.22 602.26 1434.14 602.74
  Q 1434.07 603.20 1434.22 603.59
  Q 1434.25 603.66 1434.18 603.64
  Q 1434.14 603.63 1434.10 603.62
  Q 1434.04 603.62 1434.05 603.56
  Q 1434.19 601.53 1434.08 599.50
  Q 1434.07 599.31 1433.88 599.32
  L 1433.87 599.32
  Q 1433.70 599.32 1433.70 599.49
  Q 1433.69 601.23 1433.51 602.97"
/>
<path stroke="#654dff" vector-effect="non-scaling-stroke" d="
  M 558.75 583.72
  L 558.38 598.05
  Q 558.37 598.51 558.04 598.83
  Q 557.84 599.03 557.93 599.32
  Q 558.03 599.68 558.03 600.04
  Q 558.03 601.51 557.96 603.10
  Q 557.94 603.66 557.66 603.17
  Q 557.61 603.08 557.52 603.03
  Q 557.27 602.89 556.97 602.89
  Q 537.22 602.88 517.46 602.89
  Q 516.77 602.89 516.09 602.79
  Q 514.57 602.56 513.43 603.71
  Q 513.20 603.94 512.98 603.70
  Q 512.38 603.02 511.67 603.39
  Q 511.12 603.68 511.16 603.06
  Q 511.32 600.80 510.25 601.20"
/>
<path stroke="#8a3dff" vector-effect="non-scaling-stroke" d="
  M 1480.76 860.30
  Q 1480.14 859.45 1480.33 857.96
  Q 1480.38 857.52 1480.02 857.27
  Q 1479.71 857.06 1479.68 856.61
  A 0.76 0.75 -1.6 0 0 1478.93 855.91
  Q 1457.11 855.89 1436.63 855.84
  Q 1435.15 855.84 1433.61 855.51
  Q 1433.12 855.41 1433.04 854.91
  L 1432.74 852.95"
/>
<path stroke="#8a3dff" vector-effect="non-scaling-stroke" d="
  M 559.32 851.30
  Q 558.45 851.09 557.64 850.84
  Q 557.05 850.66 557.18 851.22
  Q 557.21 851.35 557.14 851.49
  Q 556.89 852.01 556.46 851.61
  Q 554.64 849.89 552.12 849.89
  Q 533.80 849.88 515.66 849.86
  Q 515.36 849.86 515.10 849.70
  Q 514.75 849.48 514.57 849.79
  Q 514.25 850.33 513.65 850.14
  Q 512.81 849.87 512.24 850.31
  Q 511.83 850.63 511.89 851.14
  Q 512.36 854.74 511.16 857.77"
/>
<path stroke="#a531ff" vector-effect="non-scaling-stroke" d="
  M 1117.64 930.72
  L 1117.01 935.53
  Q 1116.96 935.93 1116.71 935.61
  Q 1116.63 935.49 1116.58 935.35
  Q 1116.47 935.01 1116.11 935.07
  C 1114.77 935.28 1113.66 934.89 1112.35 934.93
  Q 1094.78 935.35 1078.22 934.94
  Q 1073.60 934.83 1071.54 935.47
  A 0.43 0.42 81.8 0 0 1071.24 935.88
  Q 1071.24 936.16 1070.97 936.24
  Q 1070.66 936.33 1070.61 936.01
  Q 1070.59 935.88 1070.60 935.74
  A 0.05 0.01 -81.1 0 1 1070.62 935.67
  Q 1070.61 935.91 1070.62 936.15
  Q 1070.64 936.60 1070.24 936.82
  Q 1070.05 936.93 1069.83 936.95
  Q 1069.24 937.01 1069.16 936.43
  L 1069.08 935.79"
/>
<path stroke="#a531ff" vector-effect="non-scaling-stroke" d="
  M 923.25 932.78
  L 922.77 935.38
  A 0.07 0.07 0.0 0 1 922.70 935.44
  Q 920.61 935.25 920.20 934.52
  Q 919.97 934.13 919.52 934.13
  L 876.01 934.11
  Q 875.50 934.11 875.47 933.60
  Q 875.36 931.94 874.74 930.75"
/>
<path stroke="#415dff" vector-effect="non-scaling-stroke" d="
  M 461.60 366.71
  L 461.43 357.86
  Q 461.41 357.18 460.74 357.12
  Q 460.58 357.10 460.72 356.86
  A 0.49 0.48 17.0 0 0 460.33 356.13
  Q 458.08 355.99 455.73 356.02
  Q 440.07 356.22 425.00 356.02
  Q 424.02 356.01 423.00 356.06
  Q 422.05 356.11 421.02 355.95
  Q 418.19 355.49 415.46 356.48
  Q 415.23 356.57 415.00 356.58
  Q 414.76 356.59 414.54 356.46
  A 0.46 0.46 0.0 0 0 413.85 356.84
  Q 413.84 357.12 413.97 357.38
  Q 414.14 357.72 413.76 357.77
  Q 413.54 357.80 413.52 357.64
  Q 413.38 356.88 413.34 357.66
  Q 413.31 358.11 413.03 358.30"
/>
<path stroke="#415dff" vector-effect="non-scaling-stroke" d="
  M 218.64 352.94
  Q 218.43 357.28 217.94 361.50
  Q 217.91 361.75 217.75 361.56
  Q 217.72 361.52 217.73 361.47
  Q 217.84 361.17 217.49 361.16
  Q 204.78 361.04 192.06 361.08
  C 190.61 361.08 189.29 361.46 187.88 361.27
  C 185.64 360.97 183.58 361.49 181.34 361.29
  Q 179.75 361.14 178.10 361.28
  Q 175.02 361.53 171.65 361.21
  Q 171.04 361.15 170.99 360.54
  Q 170.92 359.74 170.94 358.91
  Q 170.94 358.85 170.89 358.83
  Q 170.84 358.81 170.80 358.85
  Q 170.76 358.89 170.77 358.94
  Q 170.97 361.02 170.10 362.31"
/>
<path stroke="#415dff" vector-effect="non-scaling-stroke" d="
  M 1384.90 384.98
  L 1384.25 383.53
  Q 1384.08 383.16 1384.29 382.80
  Q 1384.49 382.47 1384.17 382.24
  Q 1383.67 381.90 1383.85 381.33
  Q 1384.04 380.68 1383.50 380.23
  Q 1383.06 379.87 1382.50 379.87
  Q 1360.03 379.89 1338.67 379.88
  Q 1338.07 379.88 1337.82 380.43
  Q 1337.45 381.25 1337.23 382.20
  Q 1337.14 382.57 1336.96 382.23
  Q 1336.83 382.00 1336.62 382.21
  A 0.45 0.45 0.0 0 0 1336.49 382.50
  L 1336.36 385.04"
/>
<path stroke="#415dff" vector-effect="non-scaling-stroke" d="
  M 655.99 342.05
  Q 655.37 340.50 655.64 338.57
  Q 655.67 338.39 655.51 338.36
  Q 655.46 338.35 655.41 338.36
  Q 654.69 338.53 655.44 338.57
  Q 655.49 338.57 655.52 338.61
  Q 655.65 338.77 655.53 338.94
  Q 655.26 339.31 655.11 339.80
  Q 655.09 339.58 655.31 339.55
  Q 655.81 339.46 655.54 339.89
  Q 655.28 340.30 655.12 340.72
  Q 655.00 341.01 655.21 340.78
  Q 655.29 340.69 655.44 340.74
  Q 655.69 340.84 655.51 341.03
  Q 655.19 341.37 655.10 341.74
  Q 655.05 341.99 655.21 341.80
  Q 655.30 341.69 655.49 341.77
  Q 655.69 341.85 655.53 342.00
  Q 655.22 342.31 655.09 342.71
  Q 654.99 343.01 655.22 342.78
  Q 655.25 342.74 655.31 342.74
  Q 655.61 342.70 655.47 342.98
  Q 655.27 343.38 655.10 343.80
  Q 655.12 343.65 655.26 343.55
  Q 655.46 343.41 655.58 343.62
  Q 655.68 343.79 655.60 343.97
  Q 655.51 344.16 655.30 344.16
  Q 633.17 344.06 611.49 344.22
  Q 610.08 344.23 609.20 344.89
  Q 608.90 345.11 608.88 344.74
  Q 608.86 344.33 608.53 344.04
  Q 608.24 343.79 608.36 344.15
  Q 608.43 344.34 608.25 344.45
  Q 607.95 344.64 607.88 344.30
  Q 607.87 344.25 607.89 344.20
  Q 608.05 343.88 607.72 344.01
  Q 607.62 344.05 607.48 344.04"
/>
<path stroke="#654dff" vector-effect="non-scaling-stroke" d="
  M 1384.90 609.71
  L 1384.71 604.57
  A 1.74 1.74 0.0 0 0 1382.97 602.89
  Q 1361.20 602.88 1339.07 602.88
  Q 1338.68 602.88 1338.34 603.08
  Q 1338.00 603.27 1337.63 603.32
  Q 1336.97 603.40 1337.39 603.92
  Q 1337.51 604.06 1337.44 604.23
  Q 1337.02 605.20 1337.08 604.15
  Q 1337.29 600.87 1336.38 598.51"
/>
<path stroke="#654dff" vector-effect="non-scaling-stroke" d="
  M 656.00 609.71
  Q 655.11 609.40 654.92 610.61
  Q 654.82 611.29 655.34 610.85
  Q 655.39 610.80 655.41 610.87
  Q 655.46 611.07 655.27 611.14
  Q 654.68 611.37 654.93 611.92
  A 0.16 0.16 0.0 0 0 655.17 611.98
  Q 655.44 611.79 655.42 611.96
  Q 655.40 612.14 655.23 612.16
  Q 654.90 612.21 654.87 612.55
  Q 654.86 612.69 654.91 612.81
  Q 655.07 613.20 655.26 612.80
  A 0.07 0.07 0.0 0 1 655.39 612.86
  Q 655.26 613.18 655.00 613.45
  Q 654.48 613.98 655.23 613.87
  Q 655.51 613.83 655.34 614.05
  Q 655.27 614.13 655.18 614.16
  Q 654.95 614.23 654.87 614.47
  Q 654.78 614.77 655.03 614.96
  Q 655.29 615.16 655.33 614.83
  Q 655.39 614.42 655.38 614.80
  Q 655.38 614.86 655.38 614.91
  Q 655.40 615.18 655.13 615.16
  Q 654.93 615.14 654.75 615.01
  A 0.57 0.52 -22.7 0 0 654.39 614.88
  Q 636.21 614.89 619.00 614.91
  Q 615.74 614.91 612.72 615.62
  Q 611.88 615.82 611.20 615.25
  Q 610.50 614.65 609.80 615.25
  Q 609.29 615.68 609.17 616.33
  Q 609.04 616.96 608.70 616.41
  Q 608.67 616.35 608.60 616.36
  Q 608.11 616.44 608.17 615.90
  Q 608.52 612.38 607.48 609.68"
/>
<path stroke="#adb8ff" vector-effect="non-scaling-stroke" d="
  M 1287.72 396.50
  Q 1271.66 397.13 1255.51 396.63
  Q 1254.59 396.60 1253.67 396.56
  Q 1252.77 396.53 1251.93 396.15
  Q 1250.15 395.36 1248.03 395.35
  Q 1238.80 395.28 1230.41 395.54
  C 1228.12 395.61 1226.15 396.49 1223.90 396.69
  Q 1216.41 397.37 1207.42 397.16
  Q 1206.13 397.13 1205.96 398.41
  L 1205.75 400.00"
/>
</g>
<path fill="#3163ff" d="
  M 121.48 347.55
  L 120.62 344.59
  Q 120.49 344.14 120.00 344.14
  L 78.81 344.07
  Q 78.42 344.06 78.02 344.02
  Q 76.23 343.83 74.38 344.60
  Q 72.94 345.20 73.55 343.77
  Q 73.72 343.38 73.60 342.94
  Q 73.36 342.04 73.39 342.97
  Q 73.41 343.58 72.96 343.54
  Q 72.90 282.02 72.98 220.50
  Q 73.00 207.29 74.31 200.59
  C 79.95 171.75 103.00 148.83 131.85 143.25
  Q 138.86 141.90 150.67 141.91
  Q 304.89 141.99 461.28 141.95
  Q 461.63 141.95 461.63 142.29
  L 461.63 190.00
  A 0.51 0.51 0.0 0 1 461.12 190.51
  Q 306.07 190.53 147.48 190.43
  Q 142.55 190.43 138.85 191.50
  C 131.30 193.67 125.02 199.81 122.58 207.41
  Q 121.48 210.85 121.48 217.73
  Q 121.50 282.63 121.48 347.55
  Z"
/>
<path fill="#3163ff" d="
  M 1482.03 360.52
  L 1481.65 356.59
  Q 1481.60 356.12 1481.13 356.12
  L 1443.47 356.07
  Q 1442.96 356.07 1442.47 355.94
  Q 1439.72 355.25 1436.62 356.35
  Q 1435.17 356.87 1434.87 355.47
  Q 1434.82 355.26 1434.76 355.46
  Q 1434.74 355.52 1434.68 355.52
  Q 1434.48 355.51 1434.40 355.32
  Q 1434.32 355.14 1434.41 354.97
  Q 1434.60 354.64 1434.51 355.00
  Q 1434.39 355.54 1434.36 356.14
  Q 1434.32 356.83 1433.91 356.28
  Q 1433.65 355.94 1433.66 355.50
  Q 1433.72 349.77 1433.53 344.04
  Q 1433.49 280.75 1433.52 217.46
  Q 1433.52 211.82 1432.87 209.08
  C 1430.95 201.11 1424.94 194.52 1417.27 191.86
  Q 1413.02 190.39 1405.67 190.39
  Q 993.42 190.59 583.23 190.50
  Q 575.44 190.50 569.57 194.58
  Q 558.44 202.33 558.52 216.50
  Q 558.82 273.90 558.74 331.29
  L 558.59 344.45
  Q 558.59 344.85 558.22 344.68
  Q 557.91 344.53 558.01 344.21
  A 0.04 0.04 0.0 0 1 558.09 344.22
  Q 558.18 344.99 558.09 345.81
  Q 557.98 346.79 557.67 345.85
  Q 557.56 345.50 557.62 345.14
  A 0.84 0.84 0.0 0 0 556.79 344.16
  L 511.81 343.99
  A 0.73 0.73 0.0 0 1 511.12 343.03
  Q 511.31 342.47 511.08 341.83
  Q 510.86 341.17 510.79 341.86
  L 510.26 347.05
  Q 510.22 284.14 510.27 221.24
  Q 510.28 207.67 511.49 201.34
  C 518.09 166.60 548.06 141.93 583.66 141.93
  Q 984.32 141.97 1410.03 141.95
  C 1444.60 141.95 1474.07 167.42 1480.63 200.35
  Q 1481.99 207.17 1482.01 220.25
  Q 1482.11 290.38 1482.03 360.52
  Z"
/>
<path fill="#3163ff" d="
  M 1384.90 384.98
  L 1384.25 383.53
  Q 1384.08 383.16 1384.29 382.80
  Q 1384.49 382.47 1384.17 382.24
  Q 1383.67 381.90 1383.85 381.33
  Q 1384.04 380.68 1383.50 380.23
  Q 1383.06 379.87 1382.50 379.87
  Q 1360.03 379.89 1338.67 379.88
  Q 1338.07 379.88 1337.82 380.43
  Q 1337.45 381.25 1337.23 382.20
  Q 1337.14 382.57 1336.96 382.23
  Q 1336.83 382.00 1336.62 382.21
  A 0.45 0.45 0.0 0 0 1336.49 382.50
  L 1336.36 385.04
  L 1336.35 288.06
  Q 1336.35 287.67 1335.96 287.67
  L 656.28 287.67
  A 0.31 0.30 90.0 0 0 655.98 287.98
  L 655.99 342.05
  Q 655.37 340.50 655.64 338.57
  Q 655.67 338.39 655.51 338.36
  Q 655.46 338.35 655.41 338.36
  Q 654.69 338.53 655.44 338.57
  Q 655.49 338.57 655.52 338.61
  Q 655.65 338.77 655.53 338.94
  Q 655.26 339.31 655.11 339.80
  Q 655.09 339.58 655.31 339.55
  Q 655.81 339.46 655.54 339.89
  Q 655.28 340.30 655.12 340.72
  Q 655.00 341.01 655.21 340.78
  Q 655.29 340.69 655.44 340.74
  Q 655.69 340.84 655.51 341.03
  Q 655.19 341.37 655.10 341.74
  Q 655.05 341.99 655.21 341.80
  Q 655.30 341.69 655.49 341.77
  Q 655.69 341.85 655.53 342.00
  Q 655.22 342.31 655.09 342.71
  Q 654.99 343.01 655.22 342.78
  Q 655.25 342.74 655.31 342.74
  Q 655.61 342.70 655.47 342.98
  Q 655.27 343.38 655.10 343.80
  Q 655.12 343.65 655.26 343.55
  Q 655.46 343.41 655.58 343.62
  Q 655.68 343.79 655.60 343.97
  Q 655.51 344.16 655.30 344.16
  Q 633.17 344.06 611.49 344.22
  Q 610.08 344.23 609.20 344.89
  Q 608.90 345.11 608.88 344.74
  Q 608.86 344.33 608.53 344.04
  Q 608.24 343.79 608.36 344.15
  Q 608.43 344.34 608.25 344.45
  Q 607.95 344.64 607.88 344.30
  Q 607.87 344.25 607.89 344.20
  Q 608.05 343.88 607.72 344.01
  Q 607.62 344.05 607.48 344.04
  Q 607.48 319.63 607.45 295.19
  Q 607.44 281.82 608.74 276.62
  C 614.25 254.52 633.21 239.12 656.23 239.12
  Q 995.31 239.10 1336.14 239.12
  Q 1354.64 239.12 1368.76 251.52
  Q 1384.80 265.60 1384.84 288.50
  Q 1384.92 336.72 1384.90 384.98
  Z"
/>
<path fill="#3163ff" d="
  M 461.60 366.71
  L 461.43 357.86
  Q 461.41 357.18 460.74 357.12
  Q 460.58 357.10 460.72 356.86
  A 0.49 0.48 17.0 0 0 460.33 356.13
  Q 458.08 355.99 455.73 356.02
  Q 440.07 356.22 425.00 356.02
  Q 424.02 356.01 423.00 356.06
  Q 422.05 356.11 421.02 355.95
  Q 418.19 355.49 415.46 356.48
  Q 415.23 356.57 415.00 356.58
  Q 414.76 356.59 414.54 356.46
  A 0.46 0.46 0.0 0 0 413.85 356.84
  Q 413.84 357.12 413.97 357.38
  Q 414.14 357.72 413.76 357.77
  Q 413.54 357.80 413.52 357.64
  Q 413.38 356.88 413.34 357.66
  Q 413.31 358.11 413.03 358.30
  L 412.97 336.74
  Q 412.97 336.25 412.48 336.25
  L 218.99 336.25
  Q 218.66 336.25 218.66 336.59
  L 218.64 352.94
  Q 218.43 357.28 217.94 361.50
  Q 217.91 361.75 217.75 361.56
  Q 217.72 361.52 217.73 361.47
  Q 217.84 361.17 217.49 361.16
  Q 204.78 361.04 192.06 361.08
  C 190.61 361.08 189.29 361.46 187.88 361.27
  C 185.64 360.97 183.58 361.49 181.34 361.29
  Q 179.75 361.14 178.10 361.28
  Q 175.02 361.53 171.65 361.21
  Q 171.04 361.15 170.99 360.54
  Q 170.92 359.74 170.94 358.91
  Q 170.94 358.85 170.89 358.83
  Q 170.84 358.81 170.80 358.85
  Q 170.76 358.89 170.77 358.94
  Q 170.97 361.02 170.10 362.31
  Q 170.09 349.76 170.06 337.25
  C 169.99 314.00 185.25 294.19 207.96 288.93
  Q 213.46 287.65 227.41 287.66
  Q 345.99 287.80 460.98 287.70
  Q 461.54 287.70 461.54 288.25
  L 461.60 366.71
  Z"
/>
<path fill="#5056ff" d="
  M 558.74 331.29
  L 558.75 583.72
  L 558.38 598.05
  Q 558.37 598.51 558.04 598.83
  Q 557.84 599.03 557.93 599.32
  Q 558.03 599.68 558.03 600.04
  Q 558.03 601.51 557.96 603.10
  Q 557.94 603.66 557.66 603.17
  Q 557.61 603.08 557.52 603.03
  Q 557.27 602.89 556.97 602.89
  Q 537.22 602.88 517.46 602.89
  Q 516.77 602.89 516.09 602.79
  Q 514.57 602.56 513.43 603.71
  Q 513.20 603.94 512.98 603.70
  Q 512.38 603.02 511.67 603.39
  Q 511.12 603.68 511.16 603.06
  Q 511.32 600.80 510.25 601.20
  L 510.26 347.05
  L 510.79 341.86
  Q 510.86 341.17 511.08 341.83
  Q 511.31 342.47 511.12 343.03
  A 0.73 0.73 0.0 0 0 511.81 343.99
  L 556.79 344.16
  A 0.84 0.84 0.0 0 1 557.62 345.14
  Q 557.56 345.50 557.67 345.85
  Q 557.98 346.79 558.09 345.81
  Q 558.18 344.99 558.09 344.22
  A 0.04 0.04 0.0 0 0 558.01 344.21
  Q 557.91 344.53 558.22 344.68
  Q 558.59 344.85 558.59 344.45
  L 558.74 331.29
  Z"
/>
<path fill="#94beff" d="
  M 1287.72 396.50
  Q 1271.66 397.13 1255.51 396.63
  Q 1254.59 396.60 1253.67 396.56
  Q 1252.77 396.53 1251.93 396.15
  Q 1250.15 395.36 1248.03 395.35
  Q 1238.80 395.28 1230.41 395.54
  C 1228.12 395.61 1226.15 396.49 1223.90 396.69
  Q 1216.41 397.37 1207.42 397.16
  Q 1206.13 397.13 1205.96 398.41
  L 1205.75 400.00
  L 1142.44 336.75
  Q 1141.91 336.21 1142.66 336.22
  Q 1200.53 336.38 1258.61 336.20
  Q 1267.13 336.17 1270.94 337.26
  C 1280.96 340.13 1287.79 349.73 1287.78 360.25
  Q 1287.77 377.48 1287.72 396.50
  Z"
/>
<path fill="#5056ff" d="
  M 655.99 342.05
  L 656.00 609.71
  Q 655.11 609.40 654.92 610.61
  Q 654.82 611.29 655.34 610.85
  Q 655.39 610.80 655.41 610.87
  Q 655.46 611.07 655.27 611.14
  Q 654.68 611.37 654.93 611.92
  A 0.16 0.16 0.0 0 0 655.17 611.98
  Q 655.44 611.79 655.42 611.96
  Q 655.40 612.14 655.23 612.16
  Q 654.90 612.21 654.87 612.55
  Q 654.86 612.69 654.91 612.81
  Q 655.07 613.20 655.26 612.80
  A 0.07 0.07 0.0 0 1 655.39 612.86
  Q 655.26 613.18 655.00 613.45
  Q 654.48 613.98 655.23 613.87
  Q 655.51 613.83 655.34 614.05
  Q 655.27 614.13 655.18 614.16
  Q 654.95 614.23 654.87 614.47
  Q 654.78 614.77 655.03 614.96
  Q 655.29 615.16 655.33 614.83
  Q 655.39 614.42 655.38 614.80
  Q 655.38 614.86 655.38 614.91
  Q 655.40 615.18 655.13 615.16
  Q 654.93 615.14 654.75 615.01
  A 0.57 0.52 -22.7 0 0 654.39 614.88
  Q 636.21 614.89 619.00 614.91
  Q 615.74 614.91 612.72 615.62
  Q 611.88 615.82 611.20 615.25
  Q 610.50 614.65 609.80 615.25
  Q 609.29 615.68 609.17 616.33
  Q 609.04 616.96 608.70 616.41
  Q 608.67 616.35 608.60 616.36
  Q 608.11 616.44 608.17 615.90
  Q 608.52 612.38 607.48 609.68
  L 607.48 344.04
  Q 607.62 344.05 607.72 344.01
  Q 608.05 343.88 607.89 344.20
  Q 607.87 344.25 607.88 344.30
  Q 607.95 344.64 608.25 344.45
  Q 608.43 344.34 608.36 344.15
  Q 608.24 343.79 608.53 344.04
  Q 608.86 344.33 608.88 344.74
  Q 608.90 345.11 609.20 344.89
  Q 610.08 344.23 611.49 344.22
  Q 633.17 344.06 655.30 344.16
  Q 655.51 344.16 655.60 343.97
  Q 655.68 343.79 655.58 343.62
  Q 655.46 343.41 655.26 343.55
  Q 655.12 343.65 655.10 343.80
  Q 655.27 343.38 655.47 342.98
  Q 655.61 342.70 655.31 342.74
  Q 655.25 342.74 655.22 342.78
  Q 654.99 343.01 655.09 342.71
  Q 655.22 342.31 655.53 342.00
  Q 655.69 341.85 655.49 341.77
  Q 655.30 341.69 655.21 341.80
  Q 655.05 341.99 655.10 341.74
  Q 655.19 341.37 655.51 341.03
  Q 655.69 340.84 655.44 340.74
  Q 655.29 340.69 655.21 340.78
  Q 655.00 341.01 655.12 340.72
  Q 655.28 340.30 655.54 339.89
  Q 655.81 339.46 655.31 339.55
  Q 655.09 339.58 655.11 339.80
  Q 655.26 339.31 655.53 338.94
  Q 655.65 338.77 655.52 338.61
  Q 655.49 338.57 655.44 338.57
  Q 654.69 338.53 655.41 338.36
  Q 655.46 338.35 655.51 338.36
  Q 655.67 338.39 655.64 338.57
  Q 655.37 340.50 655.99 342.05
  Z"
/>
<path fill="#5056ff" d="
  M 121.48 347.55
  L 121.48 606.22
  Q 120.92 605.01 120.88 603.67
  A 0.82 0.81 88.9 0 0 120.07 602.88
  Q 99.00 602.89 77.75 602.88
  Q 76.47 602.88 75.50 603.95
  Q 75.34 604.13 75.17 603.97
  Q 75.06 603.87 74.91 603.87
  Q 74.81 603.87 74.90 603.83
  Q 75.04 603.77 75.03 603.62
  Q 75.03 603.49 74.90 603.43
  Q 74.74 603.36 74.56 603.37
  Q 74.06 603.40 74.33 603.83
  Q 74.46 604.04 74.28 604.23
  Q 74.00 604.54 74.12 604.14
  Q 74.29 603.59 73.88 603.17
  Q 73.32 602.58 73.25 603.39
  L 72.96 606.96
  L 72.96 343.54
  Q 73.41 343.58 73.39 342.97
  Q 73.36 342.04 73.60 342.94
  Q 73.72 343.38 73.55 343.77
  Q 72.94 345.20 74.38 344.60
  Q 76.23 343.83 78.02 344.02
  Q 78.42 344.06 78.81 344.07
  L 120.00 344.14
  Q 120.49 344.14 120.62 344.59
  L 121.48 347.55
  Z"
/>
<path fill="#5056ff" d="
  M 1433.53 344.04
  Q 1433.72 349.77 1433.66 355.50
  Q 1433.65 355.94 1433.91 356.28
  Q 1434.32 356.83 1434.36 356.14
  Q 1434.39 355.54 1434.51 355.00
  Q 1434.60 354.64 1434.41 354.97
  Q 1434.32 355.14 1434.40 355.32
  Q 1434.48 355.51 1434.68 355.52
  Q 1434.74 355.52 1434.76 355.46
  Q 1434.82 355.26 1434.87 355.47
  Q 1435.17 356.87 1436.62 356.35
  Q 1439.72 355.25 1442.47 355.94
  Q 1442.96 356.07 1443.47 356.07
  L 1481.13 356.12
  Q 1481.60 356.12 1481.65 356.59
  L 1482.03 360.52
  L 1482.03 603.71
  Q 1481.62 602.90 1480.75 602.90
  Q 1457.75 602.83 1434.75 602.94
  Q 1434.71 602.94 1434.70 602.90
  Q 1434.62 602.76 1434.52 602.64
  Q 1434.22 602.26 1434.14 602.74
  Q 1434.07 603.20 1434.22 603.59
  Q 1434.25 603.66 1434.18 603.64
  Q 1434.14 603.63 1434.10 603.62
  Q 1434.04 603.62 1434.05 603.56
  Q 1434.19 601.53 1434.08 599.50
  Q 1434.07 599.31 1433.88 599.32
  L 1433.87 599.32
  Q 1433.70 599.32 1433.70 599.49
  Q 1433.69 601.23 1433.51 602.97
  L 1433.53 344.04
  Z"
/>
<path fill="#5056ff" d="
  M 218.64 352.94
  L 218.76 432.99
  Q 218.76 433.49 219.26 433.49
  L 412.48 433.49
  Q 412.98 433.49 412.98 432.99
  L 413.03 358.30
  Q 413.31 358.11 413.34 357.66
  Q 413.38 356.88 413.52 357.64
  Q 413.54 357.80 413.76 357.77
  Q 414.14 357.72 413.97 357.38
  Q 413.84 357.12 413.85 356.84
  A 0.46 0.46 0.0 0 1 414.54 356.46
  Q 414.76 356.59 415.00 356.58
  Q 415.23 356.57 415.46 356.48
  Q 418.19 355.49 421.02 355.95
  Q 422.05 356.11 423.00 356.06
  Q 424.02 356.01 425.00 356.02
  Q 440.07 356.22 455.73 356.02
  Q 458.08 355.99 460.33 356.13
  A 0.49 0.48 17.0 0 1 460.72 356.86
  Q 460.58 357.10 460.74 357.12
  Q 461.41 357.18 461.43 357.86
  L 461.60 366.71
  L 461.55 481.48
  Q 461.54 482.07 460.96 482.07
  Q 339.31 481.97 218.43 482.03
  Q 200.51 482.04 186.67 470.34
  Q 170.27 456.48 170.20 433.50
  Q 170.10 397.88 170.10 362.31
  Q 170.97 361.02 170.77 358.94
  Q 170.76 358.89 170.80 358.85
  Q 170.84 358.81 170.89 358.83
  Q 170.94 358.85 170.94 358.91
  Q 170.92 359.74 170.99 360.54
  Q 171.04 361.15 171.65 361.21
  Q 175.02 361.53 178.10 361.28
  Q 179.75 361.14 181.34 361.29
  C 183.58 361.49 185.64 360.97 187.88 361.27
  C 189.29 361.46 190.61 361.08 192.06 361.08
  Q 204.78 361.04 217.49 361.16
  Q 217.84 361.17 217.73 361.47
  Q 217.72 361.52 217.75 361.56
  Q 217.91 361.75 217.94 361.50
  Q 218.43 357.28 218.64 352.94
  Z"
/>
<path fill="#5056ff" d="
  M 1384.90 384.98
  L 1384.90 609.71
  L 1384.71 604.57
  A 1.74 1.74 0.0 0 0 1382.97 602.89
  Q 1361.20 602.88 1339.07 602.88
  Q 1338.68 602.88 1338.34 603.08
  Q 1338.00 603.27 1337.63 603.32
  Q 1336.97 603.40 1337.39 603.92
  Q 1337.51 604.06 1337.44 604.23
  Q 1337.02 605.20 1337.08 604.15
  Q 1337.29 600.87 1336.38 598.51
  L 1336.36 385.04
  L 1336.49 382.50
  A 0.45 0.45 0.0 0 1 1336.62 382.21
  Q 1336.83 382.00 1336.96 382.23
  Q 1337.14 382.57 1337.23 382.20
  Q 1337.45 381.25 1337.82 380.43
  Q 1338.07 379.88 1338.67 379.88
  Q 1360.03 379.89 1382.50 379.87
  Q 1383.06 379.87 1383.50 380.23
  Q 1384.04 380.68 1383.85 381.33
  Q 1383.67 381.90 1384.17 382.24
  Q 1384.49 382.47 1384.29 382.80
  Q 1384.08 383.16 1384.25 383.53
  L 1384.90 384.98
  Z"
/>
<path fill="#c6b2ff" d="
  M 1287.72 396.50
  L 1287.72 480.93
  Q 1287.72 481.98 1286.98 481.24
  L 1205.75 400.00
  L 1205.96 398.41
  Q 1206.13 397.13 1207.42 397.16
  Q 1216.41 397.37 1223.90 396.69
  C 1226.15 396.49 1228.12 395.61 1230.41 395.54
  Q 1238.80 395.28 1248.03 395.35
  Q 1250.15 395.36 1251.93 396.15
  Q 1252.77 396.53 1253.67 396.56
  Q 1254.59 396.60 1255.51 396.63
  Q 1271.66 397.13 1287.72 396.50
  Z"
/>
<rect fill="#5056ff" x="170.10" y="530.70" width="121.42" height="48.54" rx="0.26"/>
<rect fill="#5056ff" x="340.21" y="530.70" width="121.42" height="48.54" rx="0.27"/>
<path fill="#7a44ff" d="
  M 558.75 583.72
  Q 558.79 714.74 558.78 845.75
  Q 558.78 848.06 559.32 851.30
  Q 558.45 851.09 557.64 850.84
  Q 557.05 850.66 557.18 851.22
  Q 557.21 851.35 557.14 851.49
  Q 556.89 852.01 556.46 851.61
  Q 554.64 849.89 552.12 849.89
  Q 533.80 849.88 515.66 849.86
  Q 515.36 849.86 515.10 849.70
  Q 514.75 849.48 514.57 849.79
  Q 514.25 850.33 513.65 850.14
  Q 512.81 849.87 512.24 850.31
  Q 511.83 850.63 511.89 851.14
  Q 512.36 854.74 511.16 857.77
  Q 510.21 852.10 510.21 847.00
  Q 510.24 724.11 510.25 601.20
  Q 511.32 600.80 511.16 603.06
  Q 511.12 603.68 511.67 603.39
  Q 512.38 603.02 512.98 603.70
  Q 513.20 603.94 513.43 603.71
  Q 514.57 602.56 516.09 602.79
  Q 516.77 602.89 517.46 602.89
  Q 537.22 602.88 556.97 602.89
  Q 557.27 602.89 557.52 603.03
  Q 557.61 603.08 557.66 603.17
  Q 557.94 603.66 557.96 603.10
  Q 558.03 601.51 558.03 600.04
  Q 558.03 599.68 557.93 599.32
  Q 557.84 599.03 558.04 598.83
  Q 558.37 598.51 558.38 598.05
  L 558.75 583.72
  Z"
/>
<path fill="#7a44ff" d="
  M 1336.38 598.51
  Q 1337.29 600.87 1337.08 604.15
  Q 1337.02 605.20 1337.44 604.23
  Q 1337.51 604.06 1337.39 603.92
  Q 1336.97 603.40 1337.63 603.32
  Q 1338.00 603.27 1338.34 603.08
  Q 1338.68 602.88 1339.07 602.88
  Q 1361.20 602.88 1382.97 602.89
  A 1.74 1.74 0.0 0 1 1384.71 604.57
  L 1384.90 609.71
  Q 1384.91 690.85 1384.90 772.00
  Q 1384.90 792.97 1371.48 807.00
  C 1362.02 816.88 1349.36 822.20 1335.73 822.20
  Q 994.75 822.22 656.87 822.23
  C 633.96 822.23 613.27 806.74 608.62 783.90
  Q 607.51 778.47 607.50 769.19
  Q 607.42 689.47 607.48 609.68
  Q 608.52 612.38 608.17 615.90
  Q 608.11 616.44 608.60 616.36
  Q 608.67 616.35 608.70 616.41
  Q 609.04 616.96 609.17 616.33
  Q 609.29 615.68 609.80 615.25
  Q 610.50 614.65 611.20 615.25
  Q 611.88 615.82 612.72 615.62
  Q 615.74 614.91 619.00 614.91
  Q 636.21 614.89 654.39 614.88
  A 0.57 0.52 -22.7 0 1 654.75 615.01
  Q 654.93 615.14 655.13 615.16
  Q 655.40 615.18 655.38 614.91
  Q 655.38 614.86 655.38 614.80
  Q 655.39 614.42 655.33 614.83
  Q 655.29 615.16 655.03 614.96
  Q 654.78 614.77 654.87 614.47
  Q 654.95 614.23 655.18 614.16
  Q 655.27 614.13 655.34 614.05
  Q 655.51 613.83 655.23 613.87
  Q 654.48 613.98 655.00 613.45
  Q 655.26 613.18 655.39 612.86
  A 0.07 0.07 0.0 0 0 655.26 612.80
  Q 655.07 613.20 654.91 612.81
  Q 654.86 612.69 654.87 612.55
  Q 654.90 612.21 655.23 612.16
  Q 655.40 612.14 655.42 611.96
  Q 655.44 611.79 655.17 611.98
  A 0.16 0.16 0.0 0 1 654.93 611.92
  Q 654.68 611.37 655.27 611.14
  Q 655.46 611.07 655.41 610.87
  Q 655.39 610.80 655.34 610.85
  Q 654.82 611.29 654.92 610.61
  Q 655.11 609.40 656.00 609.71
  L 655.98 773.41
  A 0.22 0.21 0.0 0 0 656.20 773.62
  L 1335.98 773.62
  A 0.37 0.37 0.0 0 0 1336.35 773.25
  L 1336.38 598.51
  Z"
/>
<path fill="#7a44ff" d="
  M 1482.03 603.71
  Q 1482.19 796.26 1481.97 850.50
  Q 1481.96 853.38 1480.76 860.30
  Q 1480.14 859.45 1480.33 857.96
  Q 1480.38 857.52 1480.02 857.27
  Q 1479.71 857.06 1479.68 856.61
  A 0.76 0.75 -1.6 0 0 1478.93 855.91
  Q 1457.11 855.89 1436.63 855.84
  Q 1435.15 855.84 1433.61 855.51
  Q 1433.12 855.41 1433.04 854.91
  L 1432.74 852.95
  C 1433.11 850.85 1433.45 848.86 1433.45 846.66
  Q 1433.56 724.82 1433.51 602.97
  Q 1433.69 601.23 1433.70 599.49
  Q 1433.70 599.32 1433.87 599.32
  L 1433.88 599.32
  Q 1434.07 599.31 1434.08 599.50
  Q 1434.19 601.53 1434.05 603.56
  Q 1434.04 603.62 1434.10 603.62
  Q 1434.14 603.63 1434.18 603.64
  Q 1434.25 603.66 1434.22 603.59
  Q 1434.07 603.20 1434.14 602.74
  Q 1434.22 602.26 1434.52 602.64
  Q 1434.62 602.76 1434.70 602.90
  Q 1434.71 602.94 1434.75 602.94
  Q 1457.75 602.83 1480.75 602.90
  Q 1481.62 602.90 1482.03 603.71
  Z"
/>
<path fill="#7a44ff" d="
  M 121.48 606.22
  L 121.48 854.95
  Q 120.84 856.31 121.14 858.05
  Q 121.16 858.13 121.13 858.13
  L 120.85 858.13
  Q 120.78 858.13 120.80 858.05
  Q 121.14 856.96 120.61 856.19
  Q 120.39 855.88 120.01 855.88
  L 74.76 855.87
  Q 74.20 855.87 74.02 856.41
  Q 73.74 857.26 73.41 858.21
  Q 73.29 858.57 73.35 858.19
  Q 73.72 855.93 72.96 853.95
  L 72.96 606.96
  L 73.25 603.39
  Q 73.32 602.58 73.88 603.17
  Q 74.29 603.59 74.12 604.14
  Q 74.00 604.54 74.28 604.23
  Q 74.46 604.04 74.33 603.83
  Q 74.06 603.40 74.56 603.37
  Q 74.74 603.36 74.90 603.43
  Q 75.03 603.49 75.03 603.62
  Q 75.04 603.77 74.90 603.83
  Q 74.81 603.87 74.91 603.87
  Q 75.06 603.87 75.17 603.97
  Q 75.34 604.13 75.50 603.95
  Q 76.47 602.88 77.75 602.88
  Q 99.00 602.89 120.07 602.88
  A 0.82 0.81 88.9 0 1 120.88 603.67
  Q 120.92 605.01 121.48 606.22
  Z"
/>
<rect fill="#7a44ff" x="170.10" y="627.86" width="121.42" height="48.56" rx="0.33"/>
<rect fill="#7a44ff" x="340.21" y="627.86" width="121.42" height="48.56" rx="0.32"/>
<rect fill="#7a44ff" x="170.10" y="725.02" width="291.52" height="48.60" rx="0.26"/>
<path fill="#9936ff" d="
  M 559.32 851.30
  C 561.42 861.14 569.13 868.86 579.06 870.50
  Q 581.41 870.89 588.90 870.88
  Q 984.78 870.77 1407.57 870.83
  Q 1413.28 870.83 1417.07 869.50
  Q 1428.56 865.46 1432.74 852.95
  L 1433.04 854.91
  Q 1433.12 855.41 1433.61 855.51
  Q 1435.15 855.84 1436.63 855.84
  Q 1457.11 855.89 1478.93 855.91
  A 0.76 0.75 -1.6 0 1 1479.68 856.61
  Q 1479.71 857.06 1480.02 857.27
  Q 1480.38 857.52 1480.33 857.96
  Q 1480.14 859.45 1480.76 860.30
  C 1474.81 890.29 1451.13 913.48 1421.07 918.38
  Q 1414.93 919.38 1401.12 919.38
  Q 1259.72 919.38 1118.31 919.37
  Q 1117.80 919.37 1117.79 919.89
  L 1117.64 930.72
  L 1117.01 935.53
  Q 1116.96 935.93 1116.71 935.61
  Q 1116.63 935.49 1116.58 935.35
  Q 1116.47 935.01 1116.11 935.07
  C 1114.77 935.28 1113.66 934.89 1112.35 934.93
  Q 1094.78 935.35 1078.22 934.94
  Q 1073.60 934.83 1071.54 935.47
  A 0.43 0.42 81.8 0 0 1071.24 935.88
  Q 1071.24 936.16 1070.97 936.24
  Q 1070.66 936.33 1070.61 936.01
  Q 1070.59 935.88 1070.60 935.74
  A 0.05 0.01 -81.1 0 1 1070.62 935.67
  Q 1070.61 935.91 1070.62 936.15
  Q 1070.64 936.60 1070.24 936.82
  Q 1070.05 936.93 1069.83 936.95
  Q 1069.24 937.01 1069.16 936.43
  L 1069.08 935.79
  L 1069.07 919.76
  Q 1069.07 919.38 1068.69 919.38
  L 923.98 919.38
  Q 923.46 919.38 923.45 919.90
  L 923.25 932.78
  L 922.77 935.38
  A 0.07 0.07 0.0 0 1 922.70 935.44
  Q 920.61 935.25 920.20 934.52
  Q 919.97 934.13 919.52 934.13
  L 876.01 934.11
  Q 875.50 934.11 875.47 933.60
  Q 875.36 931.94 874.74 930.75
  L 874.54 919.89
  Q 874.53 919.39 874.04 919.39
  Q 728.79 919.34 583.83 919.39
  C 556.35 919.40 532.23 904.97 519.06 881.25
  Q 512.95 870.25 511.16 857.77
  Q 512.36 854.74 511.89 851.14
  Q 511.83 850.63 512.24 850.31
  Q 512.81 849.87 513.65 850.14
  Q 514.25 850.33 514.57 849.79
  Q 514.75 849.48 515.10 849.70
  Q 515.36 849.86 515.66 849.86
  Q 533.80 849.88 552.12 849.89
  Q 554.64 849.89 556.46 851.61
  Q 556.89 852.01 557.14 851.49
  Q 557.21 851.35 557.18 851.22
  Q 557.05 850.66 557.64 850.84
  Q 558.45 851.09 559.32 851.30
  Z"
/>
<path fill="#9936ff" d="
  M 72.96 853.95
  Q 73.72 855.93 73.35 858.19
  Q 73.29 858.57 73.41 858.21
  Q 73.74 857.26 74.02 856.41
  Q 74.20 855.87 74.76 855.87
  L 120.01 855.88
  Q 120.39 855.88 120.61 856.19
  Q 121.14 856.96 120.80 858.05
  Q 120.78 858.13 120.85 858.13
  L 121.13 858.13
  Q 121.16 858.13 121.14 858.05
  Q 120.84 856.31 121.48 854.95
  L 121.48 921.29
  Q 121.51 922.45 121.20 923.33
  Q 120.85 924.28 120.65 923.29
  Q 120.54 922.77 120.68 922.26
  Q 120.79 921.86 120.39 921.97
  Q 119.82 922.13 119.25 922.13
  Q 95.76 922.09 74.29 922.16
  A 0.33 0.33 0.0 0 0 73.96 922.46
  Q 73.72 925.07 73.55 927.76
  Q 73.54 927.95 73.34 927.94
  L 73.34 927.94
  Q 73.15 927.93 73.15 927.74
  Q 73.22 923.77 72.99 919.79
  L 72.96 853.95
  Z"
/>
<path fill="#b12cff" d="
  M 72.99 919.79
  Q 73.22 923.77 73.15 927.74
  Q 73.15 927.93 73.34 927.94
  L 73.34 927.94
  Q 73.54 927.95 73.55 927.76
  Q 73.72 925.07 73.96 922.46
  A 0.33 0.33 0.0 0 1 74.29 922.16
  Q 95.76 922.09 119.25 922.13
  Q 119.82 922.13 120.39 921.97
  Q 120.79 921.86 120.68 922.26
  Q 120.54 922.77 120.65 923.29
  Q 120.85 924.28 121.20 923.33
  Q 121.51 922.45 121.48 921.29
  Q 121.51 1002.35 121.48 1083.42
  Q 121.47 1092.70 122.36 1096.01
  C 124.40 1103.59 130.35 1109.77 137.80 1112.49
  Q 141.71 1113.92 147.30 1113.84
  Q 159.38 1113.67 169.69 1113.81
  Q 170.11 1113.82 170.11 1113.40
  Q 170.08 1064.88 170.10 1017.30
  C 170.11 989.31 191.82 968.01 219.67 968.01
  Q 340.23 967.99 461.24 968.00
  Q 461.63 968.00 461.63 968.39
  L 461.63 1015.84
  Q 461.63 1016.55 460.92 1016.55
  L 219.18 1016.53
  Q 218.64 1016.53 218.64 1017.07
  L 218.64 1113.21
  Q 218.64 1113.77 219.21 1113.77
  L 461.26 1113.77
  A 0.37 0.36 -0.0 0 1 461.63 1114.13
  L 461.63 1161.90
  A 0.43 0.43 0.0 0 1 461.19 1162.33
  Q 306.90 1162.25 150.24 1162.36
  Q 138.83 1162.36 132.33 1161.10
  C 102.98 1155.39 79.89 1132.61 74.27 1103.41
  Q 72.98 1096.72 72.97 1083.49
  Q 72.91 1001.64 72.99 919.79
  Z"
/>
<path fill="#b12cff" d="
  M 874.74 930.75
  Q 875.36 931.94 875.47 933.60
  Q 875.50 934.11 876.01 934.11
  L 919.52 934.13
  Q 919.97 934.13 920.20 934.52
  Q 920.61 935.25 922.70 935.44
  A 0.07 0.07 0.0 0 0 922.77 935.38
  L 923.25 932.78
  L 923.23 1016.10
  Q 923.23 1016.62 923.75 1016.62
  L 1068.72 1016.62
  A 0.36 0.36 0.0 0 0 1069.08 1016.26
  L 1069.08 935.79
  L 1069.16 936.43
  Q 1069.24 937.01 1069.83 936.95
  Q 1070.05 936.93 1070.24 936.82
  Q 1070.64 936.60 1070.62 936.15
  Q 1070.61 935.91 1070.62 935.67
  A 0.05 0.01 -81.1 0 0 1070.60 935.74
  Q 1070.59 935.88 1070.61 936.01
  Q 1070.66 936.33 1070.97 936.24
  Q 1071.24 936.16 1071.24 935.88
  A 0.43 0.42 81.8 0 1 1071.54 935.47
  Q 1073.60 934.83 1078.22 934.94
  Q 1094.78 935.35 1112.35 934.93
  C 1113.66 934.89 1114.77 935.28 1116.11 935.07
  Q 1116.47 935.01 1116.58 935.35
  Q 1116.63 935.49 1116.71 935.61
  Q 1116.96 935.93 1117.01 935.53
  L 1117.64 930.72
  L 1117.63 1016.17
  A 0.45 0.44 0.7 0 0 1118.07 1016.61
  Q 1128.11 1016.66 1138.80 1016.60
  Q 1148.93 1016.53 1155.53 1017.87
  C 1184.88 1023.81 1208.05 1046.29 1213.59 1075.98
  Q 1214.91 1083.06 1214.85 1094.07
  Q 1214.66 1129.04 1214.85 1161.91
  Q 1214.85 1162.31 1214.44 1162.31
  L 777.75 1162.31
  A 0.30 0.29 0.0 0 1 777.45 1162.02
  Q 777.61 1130.08 777.41 1097.81
  Q 777.34 1086.03 778.40 1078.73
  C 782.93 1047.45 807.26 1022.84 838.55 1017.61
  C 849.52 1015.77 862.22 1016.79 874.14 1016.57
  Q 874.73 1016.56 874.73 1015.97
  L 874.74 930.75
  Z
  M 838.35 1068.34
  Q 825.98 1076.00 826.02 1090.59
  Q 826.05 1101.70 826.02 1113.05
  Q 826.02 1113.77 826.73 1113.77
  L 1165.72 1113.77
  Q 1166.21 1113.77 1166.22 1113.28
  Q 1166.36 1100.91 1166.16 1088.93
  C 1165.99 1078.70 1159.43 1069.84 1149.89 1066.49
  Q 1145.94 1065.10 1138.94 1065.11
  Q 996.18 1065.29 854.93 1065.09
  C 848.91 1065.08 843.46 1065.17 838.35 1068.34
  Z"
/>
</svg>
